<?xml version="1.0" encoding="UTF-8"?>
<svg id="Layer_2" data-name="Layer 2" xmlns="http://www.w3.org/2000/svg" viewBox="0 0 223.68 207.09">
  <defs>
    <style>
      .cls-1 {
        fill: #1a93b6;
      }
    </style>
  </defs>
  <g id="Layer_1-2" data-name="Layer 1">
    <path class="cls-1" d="M145.27,117.93c8.62-4.01,18.71-4.95,28.5-1.89,20.9,6.52,32.56,28.74,26.04,49.64-6.52,20.9-28.74,32.56-49.64,26.04-9.84-3.07-17.64-9.62-22.45-17.88,4.95,14.31,16.38,26.16,31.94,31.01,26,8.11,53.66-6.4,61.77-32.41,8.11-26-6.4-53.66-32.41-61.77-15.5-4.83-31.58-1.63-43.76,7.25Z"/>
    <path class="cls-1" d="M62.41,191.58c-20.9-6.52-32.56-28.74-26.04-49.64,6.52-20.9,28.74-32.56,49.64-26.04,2.19,.68,4.27,1.55,6.25,2.56-4.9-4.15-10.69-7.41-17.2-9.44-26-8.11-53.66,6.4-61.77,32.41s6.4,53.66,32.41,61.77c22.32,6.96,45.84-2.75,57.19-22.09-10.08,10.55-25.61,15.12-40.48,10.48Z"/>
    <path class="cls-1" d="M30.53,94.92c-11.28-10.03-16.3-26.09-11.52-41.43,6.52-20.9,28.74-32.56,49.64-26.04,16.49,5.14,27.21,20.05,27.82,36.38,7.98-25.95-6.52-53.49-32.46-61.58S10.36,8.65,2.25,34.65c-7.67,24.59,4.9,50.65,28.29,60.27Z"/>
    <path class="cls-1" d="M106.12,51.38c6.52-20.9,28.74-32.56,49.64-26.04,20.9,6.52,32.56,28.74,26.04,49.64-4.78,15.33-18.02,25.68-32.98,27.54,22,1.18,42.84-12.59,49.7-34.58,8.11-26-6.4-53.66-32.41-61.77s-53.66,6.4-61.77,32.41c-3.25,10.42-2.86,21.1,.44,30.69-.91-5.8-.54-11.9,1.33-17.88Z"/>
  </g>
</svg>